<?xml version="1.0" encoding="UTF-8" standalone="no"?>
<svg
   xmlns:dc="http://purl.org/dc/elements/1.1/"
   xmlns:cc="http://creativecommons.org/ns#"
   xmlns:rdf="http://www.w3.org/1999/02/22-rdf-syntax-ns#"
   xmlns:svg="http://www.w3.org/2000/svg"
   xmlns="http://www.w3.org/2000/svg"
   xmlns:sodipodi="http://sodipodi.sourceforge.net/DTD/sodipodi-0.dtd"
   xmlns:inkscape="http://www.inkscape.org/namespaces/inkscape"
   height="24"
   viewBox="0 0 24 24"
   width="24"
   version="1.1"
   id="svg4"
   sodipodi:docname="github.svg"
   inkscape:version="0.92.5 (2060ec1f9f, 2020-04-08)">
  <metadata
     id="metadata10">
    <rdf:RDF>
      <cc:Work
         rdf:about="">
        <dc:format>image/svg+xml</dc:format>
        <dc:type
           rdf:resource="http://purl.org/dc/dcmitype/StillImage" />
      </cc:Work>
    </rdf:RDF>
  </metadata>
  <defs
     id="defs8" />
  <sodipodi:namedview
     pagecolor="#ffffff"
     bordercolor="#666666"
     borderopacity="1"
     objecttolerance="10"
     gridtolerance="10"
     guidetolerance="10"
     inkscape:pageopacity="0"
     inkscape:pageshadow="2"
     inkscape:window-width="1636"
     inkscape:window-height="954"
     id="namedview6"
     showgrid="false"
     inkscape:zoom="11.313709"
     inkscape:cx="16.274161"
     inkscape:cy="14.260597"
     inkscape:window-x="411"
     inkscape:window-y="240"
     inkscape:window-maximized="0"
     inkscape:current-layer="svg4" />
  <path
     d="M 12.039683,-1.9101289e-4 C 5.3777255,-1.9101289e-4 0,5.3774113 0,12.039218 c 0,5.297339 3.451376,9.792052 8.267249,11.397306 0.642117,0.08027 0.802646,-0.240787 0.802646,-0.561839 v -2.08683 C 5.698783,21.510219 4.9764025,19.1826 4.9764025,19.1826 4.4145508,17.818134 3.6119047,17.41682 3.6119047,17.41682 c -1.1237034,-0.722365 0.080268,-0.722365 0.080268,-0.722365 1.2039691,0.08027 1.8460852,1.203942 1.8460852,1.203942 C 6.581697,19.74444 8.347518,19.1826 9.069898,18.86155 9.150168,18.058922 9.471221,17.577345 9.872544,17.256295 7.2238131,16.935244 4.4145544,15.891828 4.4145544,11.316853 c 0,-1.284203 0.4815874,-2.4078819 1.2039678,-3.2105099 C 5.4579935,7.7852929 5.0566705,6.581352 5.6987902,4.8958348 c 0,0 1.0434391,-0.3210508 3.2908468,1.2039409 0.963175,-0.2407882 2.006614,-0.4013137 3.050053,-0.4013137 1.04344,0 2.086879,0.1605255 3.050053,0.4013137 2.327673,-1.5249917 3.290848,-1.2039409 3.290848,-1.2039409 0.642116,1.6855172 0.240793,2.8894581 0.08027,3.2105083 0.802645,0.802628 1.203968,1.9263069 1.203968,3.2105099 0,4.655239 -2.809259,5.618391 -5.45799,5.939442 0.401323,0.401313 0.802646,1.123678 0.802646,2.247357 v 3.29077 c 0,0.321051 0.240793,0.722365 0.802646,0.56184 4.815872,-1.605255 8.186984,-6.099967 8.186984,-11.397307 C 24.079385,5.3774113 18.701654,-1.9101289e-4 12.039696,-1.9101289e-4 Z"
     id="path2"
     inkscape:connector-curvature="0"
     style="stroke-width:1.19999945" />
</svg>
