<?xml version="1.0" encoding="UTF-8" standalone="no"?>
<svg
   xmlns:dc="http://purl.org/dc/elements/1.1/"
   xmlns:cc="http://creativecommons.org/ns#"
   xmlns:rdf="http://www.w3.org/1999/02/22-rdf-syntax-ns#"
   xmlns:svg="http://www.w3.org/2000/svg"
   xmlns="http://www.w3.org/2000/svg"
   xmlns:sodipodi="http://sodipodi.sourceforge.net/DTD/sodipodi-0.dtd"
   xmlns:inkscape="http://www.inkscape.org/namespaces/inkscape"
   height="24"
   viewBox="0 0 24 24"
   width="24"
   version="1.1"
   id="svg4"
   sodipodi:docname="linkedin.svg"
   inkscape:version="0.92.5 (2060ec1f9f, 2020-04-08)">
  <metadata
     id="metadata10">
    <rdf:RDF>
      <cc:Work
         rdf:about="">
        <dc:format>image/svg+xml</dc:format>
        <dc:type
           rdf:resource="http://purl.org/dc/dcmitype/StillImage" />
      </cc:Work>
    </rdf:RDF>
  </metadata>
  <defs
     id="defs8" />
  <sodipodi:namedview
     pagecolor="#ffffff"
     bordercolor="#666666"
     borderopacity="1"
     objecttolerance="10"
     gridtolerance="10"
     guidetolerance="10"
     inkscape:pageopacity="0"
     inkscape:pageshadow="2"
     inkscape:window-width="1480"
     inkscape:window-height="936"
     id="namedview6"
     showgrid="false"
     inkscape:zoom="9.8333333"
     inkscape:cx="12"
     inkscape:cy="12"
     inkscape:window-x="573"
     inkscape:window-y="241"
     inkscape:window-maximized="0"
     inkscape:current-layer="svg4" />
  <path
     d="M 20.449136,20.449793 H 16.893088 V 14.88096 c 0,-1.32794 -0.02371,-3.037409 -1.849517,-3.037409 -1.852109,0 -2.135482,1.446844 -2.135482,2.940731 v 5.665141 H 9.35204 V 8.9976456 h 3.413807 v 1.5650064 h 0.04778 c 0.696095,-1.1901624 1.990397,-1.9010004 3.368247,-1.8498564 3.604203,0 4.26874,2.3706614 4.26874,5.4547444 z M 5.3396305,7.4322684 C 3.5010137,7.4325984 2.5801652,5.2099932 3.8798725,3.9098412 5.1795802,2.6096868 7.40255,3.5297232 7.40288,5.3683104 7.4030845,6.5079984 6.4793362,7.4320632 5.3396305,7.4322684 M 7.1176553,20.449793 H 3.5579016 V 8.9976456 H 7.1176553 Z M 22.221976,0.0028368 H 1.7709868 C 0.8044308,-0.0080724 0.0117962,0.7661496 0,1.7326788 V 22.268164 c 0.011388,0.966996 0.803963,1.741982 1.7709868,1.731695 H 22.221976 C 23.190912,24.012003 23.986586,23.237069 24,22.268164 V 1.7311968 C 23.986188,0.7627584 23.190444,-0.011418 22.221976,0.0013548"
     id="path2"
     inkscape:connector-curvature="0"
     style="stroke-width:1.20000005" />
</svg>
